<svg width="100" height="100" viewBox="0 0 100 100" fill="none" xmlns="http://www.w3.org/2000/svg">
<rect width="100" height="100" rx="10" fill="#F4F6F8"/>
<path d="M62.5 42H56.5V41C56.5 40.2044 56.1839 39.4413 55.6213 38.8787C55.0587 38.3161 54.2956 38 53.5 38H47.5C46.7044 38 45.9413 38.3161 45.3787 38.8787C44.8161 39.4413 44.5 40.2044 44.5 41V42H38.5C37.9696 42 37.4609 42.2107 37.0858 42.5858C36.7107 42.9609 36.5 43.4696 36.5 44V58C36.5 58.5304 36.7107 59.0391 37.0858 59.4142C37.4609 59.7893 37.9696 60 38.5 60H62.5C63.0304 60 63.5391 59.7893 63.9142 59.4142C64.2893 59.0391 64.5 58.5304 64.5 58V44C64.5 43.4696 64.2893 42.9609 63.9142 42.5858C63.5391 42.2107 63.0304 42 62.5 42ZM46.5 41C46.5 40.7348 46.6054 40.4804 46.7929 40.2929C46.9804 40.1054 47.2348 40 47.5 40H53.5C53.7652 40 54.0196 40.1054 54.2071 40.2929C54.3946 40.4804 54.5 40.7348 54.5 41V42H46.5V41ZM62.5 44V48H58.5V47C58.5 46.7348 58.3946 46.4804 58.2071 46.2929C58.0196 46.1054 57.7652 46 57.5 46C57.2348 46 56.9804 46.1054 56.7929 46.2929C56.6054 46.4804 56.5 46.7348 56.5 47V48H44.5V47C44.5 46.7348 44.3946 46.4804 44.2071 46.2929C44.0196 46.1054 43.7652 46 43.5 46C43.2348 46 42.9804 46.1054 42.7929 46.2929C42.6054 46.4804 42.5 46.7348 42.5 47V48H38.5V44H62.5ZM62.5 58H38.5V50H42.5V51C42.5 51.2652 42.6054 51.5196 42.7929 51.7071C42.9804 51.8946 43.2348 52 43.5 52C43.7652 52 44.0196 51.8946 44.2071 51.7071C44.3946 51.5196 44.5 51.2652 44.5 51V50H56.5V51C56.5 51.2652 56.6054 51.5196 56.7929 51.7071C56.9804 51.8946 57.2348 52 57.5 52C57.7652 52 58.0196 51.8946 58.2071 51.7071C58.3946 51.5196 58.5 51.2652 58.5 51V50H62.5V58Z" fill="#0080C8"/>
</svg>
