<svg width="100" height="100" viewBox="0 0 100 100" fill="none" xmlns="http://www.w3.org/2000/svg">
<rect width="100" height="100" rx="10" fill="#F4F6F8"/>
<path d="M42.6397 45.7687L37.5622 50L42.6397 54.2312C42.7435 54.3143 42.8297 54.4173 42.8932 54.5341C42.9568 54.6509 42.9964 54.7792 43.0097 54.9115C43.0231 55.0438 43.0099 55.1775 42.971 55.3046C42.932 55.4317 42.8681 55.5499 42.783 55.652C42.6979 55.7542 42.5933 55.8383 42.4752 55.8996C42.3572 55.9608 42.2281 55.9979 42.0956 56.0086C41.9631 56.0194 41.8297 56.0036 41.7034 55.9622C41.577 55.9208 41.4602 55.8546 41.3597 55.7675L35.3597 50.7675C35.2471 50.6736 35.1565 50.5562 35.0944 50.4234C35.0322 50.2907 35 50.1459 35 49.9993C35 49.8528 35.0322 49.708 35.0944 49.5753C35.1565 49.4425 35.2471 49.3251 35.3597 49.2312L41.3597 44.2312C41.5636 44.0615 41.8265 43.9797 42.0907 44.0038C42.3549 44.028 42.5987 44.1561 42.7685 44.36C42.9382 44.5639 43.02 44.8268 42.9958 45.091C42.9717 45.3552 42.8436 45.599 42.6397 45.7687ZM64.6397 49.2312L58.6397 44.2312C58.5387 44.1472 58.4222 44.0838 58.2968 44.0448C58.1714 44.0058 58.0395 43.9919 57.9087 44.0038C57.7778 44.0158 57.6507 44.0534 57.5344 44.1145C57.4181 44.1756 57.315 44.259 57.231 44.36C57.0612 44.5639 56.9794 44.8268 57.0036 45.091C57.0277 45.3552 57.1558 45.599 57.3597 45.7687L62.4372 50L57.3597 54.2312C57.2559 54.3143 57.1697 54.4173 57.1062 54.5341C57.0426 54.6509 57.003 54.7792 56.9897 54.9115C56.9764 55.0438 56.9895 55.1775 57.0284 55.3046C57.0674 55.4317 57.1313 55.5499 57.2164 55.652C57.3015 55.7542 57.4061 55.8383 57.5242 55.8996C57.6422 55.9608 57.7713 55.9979 57.9038 56.0086C58.0363 56.0194 58.1697 56.0036 58.296 55.9622C58.4224 55.9208 58.5392 55.8546 58.6397 55.7675L64.6397 50.7675C64.7523 50.6736 64.8429 50.5562 64.905 50.4234C64.9672 50.2907 64.9994 50.1459 64.9994 49.9993C64.9994 49.8528 64.9672 49.708 64.905 49.5753C64.8429 49.4425 64.7523 49.3251 64.6397 49.2312ZM54.341 38.06C54.2175 38.0152 54.0864 37.9951 53.9552 38.0009C53.8241 38.0068 53.6953 38.0384 53.5763 38.094C53.4573 38.1496 53.3505 38.2281 53.2618 38.325C53.1732 38.4219 53.1045 38.5353 53.0597 38.6587L45.0597 60.6587C45.0147 60.7822 44.9945 60.9134 45.0002 61.0448C45.006 61.1761 45.0375 61.305 45.0931 61.4241C45.1488 61.5432 45.2273 61.6502 45.3243 61.739C45.4213 61.8277 45.5349 61.8964 45.6584 61.9412C45.768 61.9802 45.8834 62 45.9997 62C46.2051 62 46.4054 61.9368 46.5736 61.8189C46.7418 61.701 46.8696 61.5343 46.9397 61.3412L54.9397 39.3412C54.9845 39.2178 55.0046 39.0867 54.9987 38.9555C54.9929 38.8243 54.9613 38.6956 54.9057 38.5766C54.8501 38.4576 54.7716 38.3508 54.6747 38.2621C54.5778 38.1735 54.4644 38.1048 54.341 38.06Z" fill="#0080C8"/>
</svg>
