<svg width="172" height="173" viewBox="0 0 172 173" fill="none" xmlns="http://www.w3.org/2000/svg">
<g filter="url(#filter0_d_6_124)">
<path d="M6.20312 19.553C6.20312 11.5156 12.7187 4.99997 20.7562 4.99997H151.37C159.407 4.99997 165.923 11.5156 165.923 19.553V149.803C165.923 157.84 159.407 164.356 151.37 164.356H20.7562C12.7188 164.356 6.20312 157.84 6.20312 149.803V19.553Z" fill="white"/>
</g>
<path d="M51.0918 65.2442C54.0418 65.2442 56.6422 65.7783 58.8916 66.8477C61.1407 67.917 62.8918 69.4109 64.1455 71.3282C65.3992 73.2088 66.0263 75.4215 66.0264 77.9659C66.0264 80.4734 65.3993 82.686 64.1455 84.6035C62.8918 86.5209 61.1408 88.0146 58.8916 89.084C56.6422 90.1534 54.0418 90.6885 51.0918 90.6885H44.0674V104.793H34.5527V65.2442H51.0918ZM105.833 104.793H95.6006L92.9883 97.6026H76.9297L74.3047 104.793H64.4033L79.8359 65.2442H90.4004L105.833 104.793ZM120.793 80.7627L129.807 65.2442H141.036L125.492 89.7481V104.793H115.979V89.6924L100.546 65.2442H111.83L120.793 80.7627ZM79.8174 89.6924H90.1133L84.9766 75.5557L79.8174 89.6924ZM44.0674 82.7784H51.0918C52.7143 82.7784 54.0051 82.354 54.9639 81.5059C55.9225 80.6209 56.4023 79.4408 56.4023 77.9659C56.4023 76.491 55.9225 75.3296 54.9639 74.4815C54.0051 73.5965 52.7143 73.1534 51.0918 73.1534H44.0674V82.7784Z" fill="url(#paint0_linear_6_124)"/>
<defs>
<filter id="filter0_d_6_124" x="0.142096" y="0.959283" width="171.843" height="171.478" filterUnits="userSpaceOnUse" color-interpolation-filters="sRGB">
<feFlood flood-opacity="0" result="BackgroundImageFix"/>
<feColorMatrix in="SourceAlpha" type="matrix" values="0 0 0 0 0 0 0 0 0 0 0 0 0 0 0 0 0 0 127 0" result="hardAlpha"/>
<feOffset dy="2.02034"/>
<feGaussianBlur stdDeviation="3.03051"/>
<feComposite in2="hardAlpha" operator="out"/>
<feColorMatrix type="matrix" values="0 0 0 0 0.841668 0 0 0 0 0.907502 0 0 0 0 0.963932 0 0 0 1 0"/>
<feBlend mode="normal" in2="BackgroundImageFix" result="effect1_dropShadow_6_124"/>
<feBlend mode="normal" in="SourceGraphic" in2="effect1_dropShadow_6_124" result="shape"/>
</filter>
<linearGradient id="paint0_linear_6_124" x1="190.232" y1="3.71915" x2="-10.0169" y2="2.19944" gradientUnits="userSpaceOnUse">
<stop stop-color="#0080C8"/>
<stop offset="1" stop-color="#0080C8" stop-opacity="0.36"/>
</linearGradient>
</defs>
</svg>
