<svg width="173" height="172" viewBox="0 0 173 172" fill="none" xmlns="http://www.w3.org/2000/svg">
<g filter="url(#filter0_d_6_184)">
<path d="M6.60352 18.5941C6.60352 10.5566 13.1191 4.04102 21.1566 4.04102H151.77C159.808 4.04102 166.323 10.5566 166.323 18.5941V148.844C166.323 156.881 159.808 163.397 151.77 163.397H21.1566C13.1191 163.397 6.60352 156.881 6.60352 148.844V18.5941Z" fill="url(#paint0_linear_6_184)"/>
</g>
<g filter="url(#filter1_d_6_184)">
<path d="M86.4628 32.5687C114.689 32.5687 137.613 55.4838 137.613 83.7191C137.613 111.954 114.698 134.869 86.4628 134.869C58.2276 134.869 35.3125 111.954 35.3125 83.7191C35.3125 55.4838 58.2276 32.5687 86.4628 32.5687ZM86.4628 121.499C93.0087 95.6594 98.4125 90.3485 124.243 83.7191C98.4032 77.1732 93.0922 71.7694 86.4628 45.9389C79.917 71.7787 74.5132 77.0897 48.6827 83.7191C74.5225 90.3577 79.8334 95.6687 86.4628 121.499Z" fill="#FFFFF4"/>
</g>
<defs>
<filter id="filter0_d_6_184" x="0.542486" y="0.000329256" width="171.843" height="171.478" filterUnits="userSpaceOnUse" color-interpolation-filters="sRGB">
<feFlood flood-opacity="0" result="BackgroundImageFix"/>
<feColorMatrix in="SourceAlpha" type="matrix" values="0 0 0 0 0 0 0 0 0 0 0 0 0 0 0 0 0 0 127 0" result="hardAlpha"/>
<feOffset dy="2.02034"/>
<feGaussianBlur stdDeviation="3.03051"/>
<feComposite in2="hardAlpha" operator="out"/>
<feColorMatrix type="matrix" values="0 0 0 0 0.984314 0 0 0 0 0.862745 0 0 0 0 0.584314 0 0 0 1 0"/>
<feBlend mode="normal" in2="BackgroundImageFix" result="effect1_dropShadow_6_184"/>
<feBlend mode="normal" in="SourceGraphic" in2="effect1_dropShadow_6_184" result="shape"/>
</filter>
<filter id="filter1_d_6_184" x="28.2413" y="32.5687" width="116.443" height="116.443" filterUnits="userSpaceOnUse" color-interpolation-filters="sRGB">
<feFlood flood-opacity="0" result="BackgroundImageFix"/>
<feColorMatrix in="SourceAlpha" type="matrix" values="0 0 0 0 0 0 0 0 0 0 0 0 0 0 0 0 0 0 127 0" result="hardAlpha"/>
<feOffset dy="7.0712"/>
<feGaussianBlur stdDeviation="3.5356"/>
<feComposite in2="hardAlpha" operator="out"/>
<feColorMatrix type="matrix" values="0 0 0 0 0.565674 0 0 0 0 0.511362 0 0 0 0 0.511362 0 0 0 0.25 0"/>
<feBlend mode="normal" in2="BackgroundImageFix" result="effect1_dropShadow_6_184"/>
<feBlend mode="normal" in="SourceGraphic" in2="effect1_dropShadow_6_184" result="shape"/>
</filter>
<linearGradient id="paint0_linear_6_184" x1="569.989" y1="-182.238" x2="69.3259" y2="-389.089" gradientUnits="userSpaceOnUse">
<stop stop-color="#FFB800"/>
<stop offset="1" stop-color="#FFF4D6"/>
</linearGradient>
</defs>
</svg>
