<svg width="181" height="181" viewBox="0 0 181 181" fill="none" xmlns="http://www.w3.org/2000/svg">
<g filter="url(#filter0_d_6_110)">
<path d="M10.9004 23.5941C10.9004 15.5566 17.416 9.04102 25.4534 9.04102H156.067C164.105 9.04102 170.62 15.5566 170.62 23.5941V153.844C170.62 161.881 164.105 168.397 156.067 168.397H25.4534C17.416 168.397 10.9004 161.881 10.9004 153.844V23.5941Z" fill="url(#paint0_linear_6_110)" fill-opacity="0.8" shape-rendering="crispEdges"/>
</g>
<path d="M36.0039 45.0596C36.0039 39.0315 40.8906 34.1448 46.9187 34.1448H134.601C140.629 34.1448 145.516 39.0315 145.516 45.0596V132.742C145.516 138.77 140.629 143.656 134.601 143.656H46.9187C40.8906 143.656 36.0039 138.77 36.0039 132.742V45.0596Z" fill="white"/>
<g filter="url(#filter1_d_6_110)">
<path fill-rule="evenodd" clip-rule="evenodd" d="M60.1519 56.7022C59.2728 56.7022 58.5601 57.4148 58.5601 58.2939V78.7592C58.5601 79.6383 59.2728 80.3509 60.1519 80.3509H80.6171C81.4962 80.3509 82.2088 79.6383 82.2088 78.7592V58.2939C82.2088 57.4148 81.4962 56.7022 80.6171 56.7022H60.1519ZM54.9219 58.2939C54.9219 55.4055 57.2634 53.0639 60.1519 53.0639H80.6171C83.5056 53.0639 85.8471 55.4055 85.8471 58.2939V78.7592C85.8471 81.6476 83.5056 83.9892 80.6171 83.9892H60.1519C57.2634 83.9892 54.9219 81.6476 54.9219 78.7592V58.2939Z" fill="#3A9DD4"/>
<path fill-rule="evenodd" clip-rule="evenodd" d="M60.1519 97.6326C59.2728 97.6326 58.5601 98.3453 58.5601 99.2244V119.69C58.5601 120.569 59.2728 121.281 60.1519 121.281H80.6171C81.4962 121.281 82.2088 120.569 82.2088 119.69V99.2244C82.2088 98.3453 81.4962 97.6326 80.6171 97.6326H60.1519ZM54.9219 99.2244C54.9219 96.3359 57.2634 93.9944 60.1519 93.9944H80.6171C83.5056 93.9944 85.8471 96.3359 85.8471 99.2244V119.69C85.8471 122.578 83.5056 124.92 80.6171 124.92H60.1519C57.2634 124.92 54.9219 122.578 54.9219 119.69V99.2244Z" fill="#3A9DD4"/>
<path d="M74.6129 103.636H66.154C65.3753 103.636 64.7441 104.267 64.7441 105.045V113.504C64.7441 114.283 65.3753 114.914 66.154 114.914H74.6129C75.3916 114.914 76.0228 114.283 76.0228 113.504V105.045C76.0228 104.267 75.3916 103.636 74.6129 103.636Z" fill="#3A9DD4"/>
<path d="M115.726 62.8867H107.267C106.489 62.8867 105.857 63.518 105.857 64.2966V72.7555C105.857 73.5342 106.489 74.1654 107.267 74.1654H115.726C116.505 74.1654 117.136 73.5342 117.136 72.7555V64.2966C117.136 63.518 116.505 62.8867 115.726 62.8867Z" fill="#3A9DD4"/>
<path fill-rule="evenodd" clip-rule="evenodd" d="M101.084 56.7022C100.204 56.7022 99.4918 57.4148 99.4918 58.2939V78.7592C99.4918 79.6383 100.204 80.3509 101.084 80.3509H121.549C122.428 80.3509 123.14 79.6383 123.14 78.7592V58.2939C123.14 57.4148 122.428 56.7022 121.549 56.7022H101.084ZM95.8535 58.2939C95.8535 55.4055 98.1951 53.0639 101.084 53.0639H121.549C124.437 53.0639 126.779 55.4055 126.779 58.2939V78.7592C126.779 81.6476 124.437 83.9892 121.549 83.9892H101.084C98.1951 83.9892 95.8535 81.6476 95.8535 78.7592V58.2939Z" fill="#3A9DD4"/>
<path fill-rule="evenodd" clip-rule="evenodd" d="M97.6726 93.9944C98.6773 93.9944 99.4918 94.8088 99.4918 95.8135V109.457C99.4918 110.462 98.6773 111.276 97.6726 111.276C96.668 111.276 95.8535 110.462 95.8535 109.457V95.8135C95.8535 94.8088 96.668 93.9944 97.6726 93.9944Z" fill="#3A9DD4"/>
<path fill-rule="evenodd" clip-rule="evenodd" d="M111.316 93.9944C112.321 93.9944 113.135 94.8088 113.135 95.8135V123.1C113.135 124.105 112.321 124.92 111.316 124.92H97.6726C96.668 124.92 95.8535 124.105 95.8535 123.1C95.8535 122.096 96.668 121.281 97.6726 121.281H109.497V95.8135C109.497 94.8088 110.311 93.9944 111.316 93.9944Z" fill="#3A9DD4"/>
<path fill-rule="evenodd" clip-rule="evenodd" d="M109.496 102.635C109.496 101.63 110.311 100.816 111.315 100.816H124.959C125.963 100.816 126.778 101.63 126.778 102.635C126.778 103.64 125.963 104.454 124.959 104.454H111.315C110.311 104.454 109.496 103.64 109.496 102.635Z" fill="#3A9DD4"/>
<path fill-rule="evenodd" clip-rule="evenodd" d="M124.958 114.46C125.962 114.46 126.777 115.274 126.777 116.279V123.1C126.777 124.105 125.962 124.92 124.958 124.92C123.953 124.92 123.139 124.105 123.139 123.1V116.279C123.139 115.274 123.953 114.46 124.958 114.46Z" fill="#3A9DD4"/>
<path d="M80.7537 68.5259C73.6695 70.356 72.167 71.8108 70.3847 78.895C68.5546 71.8108 67.0999 70.356 60.0156 68.5259C67.0999 66.6959 68.6023 65.2411 70.3847 58.1569C72.2147 65.2411 73.6695 66.7436 80.7537 68.5259Z" fill="#3A9DD4"/>
</g>
<defs>
<filter id="filter0_d_6_110" x="0.798675" y="0.959643" width="179.924" height="179.559" filterUnits="userSpaceOnUse" color-interpolation-filters="sRGB">
<feFlood flood-opacity="0" result="BackgroundImageFix"/>
<feColorMatrix in="SourceAlpha" type="matrix" values="0 0 0 0 0 0 0 0 0 0 0 0 0 0 0 0 0 0 127 0" result="hardAlpha"/>
<feOffset dy="2.02034"/>
<feGaussianBlur stdDeviation="5.05086"/>
<feComposite in2="hardAlpha" operator="out"/>
<feColorMatrix type="matrix" values="0 0 0 0 0 0 0 0 0 0.486275 0 0 0 0 0.709804 0 0 0 0.6 0"/>
<feBlend mode="normal" in2="BackgroundImageFix" result="effect1_dropShadow_6_110"/>
<feBlend mode="normal" in="SourceGraphic" in2="effect1_dropShadow_6_110" result="shape"/>
</filter>
<filter id="filter1_d_6_110" x="52.9015" y="53.0639" width="75.8981" height="75.8963" filterUnits="userSpaceOnUse" color-interpolation-filters="sRGB">
<feFlood flood-opacity="0" result="BackgroundImageFix"/>
<feColorMatrix in="SourceAlpha" type="matrix" values="0 0 0 0 0 0 0 0 0 0 0 0 0 0 0 0 0 0 127 0" result="hardAlpha"/>
<feOffset dy="2.02034"/>
<feGaussianBlur stdDeviation="1.01017"/>
<feComposite in2="hardAlpha" operator="out"/>
<feColorMatrix type="matrix" values="0 0 0 0 0 0 0 0 0 0 0 0 0 0 0 0 0 0 0.25 0"/>
<feBlend mode="normal" in2="BackgroundImageFix" result="effect1_dropShadow_6_110"/>
<feBlend mode="normal" in="SourceGraphic" in2="effect1_dropShadow_6_110" result="shape"/>
</filter>
<linearGradient id="paint0_linear_6_110" x1="244.412" y1="-238.865" x2="-55.9667" y2="-239.713" gradientUnits="userSpaceOnUse">
<stop stop-color="#0080C8"/>
<stop offset="1" stop-color="#0080C8" stop-opacity="0.36"/>
</linearGradient>
</defs>
</svg>
