<svg width="181" height="179" viewBox="0 0 181 179" fill="none" xmlns="http://www.w3.org/2000/svg">
<g filter="url(#filter0_d_2_18)">
<g filter="url(#filter1_d_2_18)">
<path d="M15 19.5199C15 11.5008 21.5008 4.99999 29.5199 4.99999H159.836C167.855 4.99999 174.356 11.5008 174.356 19.5199V149.473C174.356 157.492 167.855 163.993 159.836 163.993H29.5199C21.5008 163.993 15 157.492 15 149.473V19.5199Z" fill="white"/>
</g>
</g>
<g filter="url(#filter2_d_2_18)">
<path d="M37.87 54.7298C37.87 50.7203 41.1204 47.4699 45.13 47.4699H143.865C147.875 47.4699 151.125 50.7203 151.125 54.7298V114.624C151.125 118.634 147.875 121.884 143.865 121.884H45.13C41.1204 121.884 37.87 118.634 37.87 114.624V54.7298Z" fill="url(#paint0_linear_2_18)"/>
</g>
<path d="M53.8412 61.627C53.8412 63.8322 52.0535 65.6199 49.8482 65.6199C47.643 65.6199 45.8553 63.8322 45.8553 61.627C45.8553 59.4217 47.643 57.634 49.8482 57.634C52.0535 57.634 53.8412 59.4217 53.8412 61.627Z" fill="#CAB582"/>
<path d="M65.4578 61.627C65.4578 63.8322 63.6701 65.6199 61.4649 65.6199C59.2596 65.6199 57.4719 63.8322 57.4719 61.627C57.4719 59.4217 59.2596 57.634 61.4649 57.634C63.6701 57.634 65.4578 59.4217 65.4578 61.627Z" fill="#CAB582"/>
<path d="M77.0735 61.627C77.0735 63.8322 75.2858 65.6199 73.0805 65.6199C70.8753 65.6199 69.0876 63.8322 69.0876 61.627C69.0876 59.4217 70.8753 57.634 73.0805 57.634C75.2858 57.634 77.0735 59.4217 77.0735 61.627Z" fill="#CAB582"/>
<path fill-rule="evenodd" clip-rule="evenodd" d="M113.273 62.3529H151.306V64.5309H114.199L104.761 74.3318H37.8695V72.1538H103.835L113.273 62.3529Z" fill="white"/>
<path d="M91.72 109.559C91.6652 109.698 91.5314 109.789 91.3826 109.789H88.4961C88.2397 109.789 88.0641 109.53 88.1587 109.292L97.9045 84.7255C97.9594 84.5872 98.0931 84.4964 98.2419 84.4964H101.128C101.385 84.4964 101.56 84.7549 101.466 84.9932L91.72 109.559Z" fill="#CAB582"/>
<path d="M82.3727 103.624V102.361C82.3727 101.914 82.0993 101.512 81.6832 101.348L71.484 97.3255C71.1773 97.2046 71.1777 96.7702 71.4847 96.6499L81.6812 92.6527C82.0983 92.4892 82.3727 92.0869 82.3727 91.6388V90.4771C82.3727 89.7024 81.5866 89.1754 80.8699 89.4698L68.3085 94.63C67.9 94.7978 67.6333 95.1957 67.6333 95.6373V95.8069V98.1597V98.4347C67.6333 98.8756 67.8991 99.2729 68.3065 99.4412L80.8679 104.631C81.5848 104.927 82.3727 104.4 82.3727 103.624Z" fill="#CAB582"/>
<path d="M107.344 103.624V102.361C107.344 101.914 107.617 101.512 108.033 101.348L118.232 97.3255C118.539 97.2046 118.539 96.7702 118.232 96.6499L108.035 92.6527C107.618 92.4892 107.344 92.0869 107.344 91.6388V90.4771C107.344 89.7024 108.13 89.1754 108.847 89.4698L121.408 94.63C121.816 94.7978 122.083 95.1957 122.083 95.6373V95.8069V98.1597V98.4347C122.083 98.8756 121.817 99.2729 121.41 99.4412L108.849 104.631C108.132 104.927 107.344 104.4 107.344 103.624Z" fill="#CAB582"/>
<defs>
<filter id="filter0_d_2_18" x="8.93897" y="0.959308" width="171.478" height="171.115" filterUnits="userSpaceOnUse" color-interpolation-filters="sRGB">
<feFlood flood-opacity="0" result="BackgroundImageFix"/>
<feColorMatrix in="SourceAlpha" type="matrix" values="0 0 0 0 0 0 0 0 0 0 0 0 0 0 0 0 0 0 127 0" result="hardAlpha"/>
<feOffset dy="2.02034"/>
<feGaussianBlur stdDeviation="3.03051"/>
<feComposite in2="hardAlpha" operator="out"/>
<feColorMatrix type="matrix" values="0 0 0 0 0.841668 0 0 0 0 0.907502 0 0 0 0 0.963932 0 0 0 1 0"/>
<feBlend mode="normal" in2="BackgroundImageFix" result="effect1_dropShadow_2_18"/>
<feBlend mode="normal" in="SourceGraphic" in2="effect1_dropShadow_2_18" result="shape"/>
</filter>
<filter id="filter1_d_2_18" x="0.857598" y="4.99999" width="173.498" height="173.135" filterUnits="userSpaceOnUse" color-interpolation-filters="sRGB">
<feFlood flood-opacity="0" result="BackgroundImageFix"/>
<feColorMatrix in="SourceAlpha" type="matrix" values="0 0 0 0 0 0 0 0 0 0 0 0 0 0 0 0 0 0 127 0" result="hardAlpha"/>
<feOffset dx="-7.0712" dy="7.0712"/>
<feGaussianBlur stdDeviation="3.5356"/>
<feComposite in2="hardAlpha" operator="out"/>
<feColorMatrix type="matrix" values="0 0 0 0 0.841668 0 0 0 0 0.907502 0 0 0 0 0.963932 0 0 0 1 0"/>
<feBlend mode="normal" in2="BackgroundImageFix" result="effect1_dropShadow_2_18"/>
<feBlend mode="normal" in="SourceGraphic" in2="effect1_dropShadow_2_18" result="shape"/>
</filter>
<filter id="filter2_d_2_18" x="30.7988" y="43.4292" width="127.398" height="88.5569" filterUnits="userSpaceOnUse" color-interpolation-filters="sRGB">
<feFlood flood-opacity="0" result="BackgroundImageFix"/>
<feColorMatrix in="SourceAlpha" type="matrix" values="0 0 0 0 0 0 0 0 0 0 0 0 0 0 0 0 0 0 127 0" result="hardAlpha"/>
<feOffset dy="3.03051"/>
<feGaussianBlur stdDeviation="3.5356"/>
<feComposite in2="hardAlpha" operator="out"/>
<feColorMatrix type="matrix" values="0 0 0 0 0.878431 0 0 0 0 0.811765 0 0 0 0 0.654902 0 0 0 0.9 0"/>
<feBlend mode="normal" in2="BackgroundImageFix" result="effect1_dropShadow_2_18"/>
<feBlend mode="normal" in="SourceGraphic" in2="effect1_dropShadow_2_18" result="shape"/>
</filter>
<linearGradient id="paint0_linear_2_18" x1="525.92" y1="-55.9844" x2="-99.5245" y2="155.28" gradientUnits="userSpaceOnUse">
<stop stop-color="#FFB800"/>
<stop offset="1" stop-color="#FFF4D6"/>
</linearGradient>
</defs>
</svg>
