<svg width="181" height="178" viewBox="0 0 181 178" fill="none" xmlns="http://www.w3.org/2000/svg">
<g filter="url(#filter0_dd_6_147)">
<path d="M14.9355 18.5941C14.9355 10.5566 21.4512 4.04102 29.4886 4.04102H160.102C168.14 4.04102 174.655 10.5566 174.655 18.5941V148.844C174.655 156.881 168.14 163.397 160.102 163.397H29.4886C21.4512 163.397 14.9355 156.881 14.9355 148.844V18.5941Z" fill="white"/>
</g>
<g filter="url(#filter1_d_6_147)">
<path fill-rule="evenodd" clip-rule="evenodd" d="M42.9486 94.9973C38.1262 94.9973 34.2168 98.9067 34.2168 103.729V111.37C34.2168 116.192 38.1262 120.101 42.9486 120.101H46.5869V123.012C46.5869 125.423 48.5416 127.378 50.9528 127.378H56.774C59.1853 127.378 61.1399 125.423 61.1399 123.012V120.101H130.995V123.012C130.995 125.423 132.949 127.378 135.36 127.378H141.182C143.593 127.378 145.548 125.423 145.548 123.012V120.101H149.186C154.008 120.101 157.918 116.192 157.918 111.37V103.729C157.918 98.9067 154.008 94.9973 149.186 94.9973H42.9486Z" fill="url(#paint0_linear_6_147)" fill-opacity="0.8" shape-rendering="crispEdges"/>
</g>
<path d="M148.097 107.732C148.097 109.339 146.793 110.642 145.186 110.642C143.579 110.642 142.275 109.339 142.275 107.732C142.275 106.124 143.579 104.821 145.186 104.821C146.793 104.821 148.097 106.124 148.097 107.732Z" fill="#1182C2"/>
<path d="M139.364 107.732C139.364 109.339 138.061 110.642 136.454 110.642C134.846 110.642 133.543 109.339 133.543 107.732C133.543 106.124 134.846 104.821 136.454 104.821C138.061 104.821 139.364 106.124 139.364 107.732Z" fill="#1182C2"/>
<path d="M130.632 107.732C130.632 109.339 129.329 110.642 127.721 110.642C126.114 110.642 124.811 109.339 124.811 107.732C124.811 106.124 126.114 104.821 127.721 104.821C129.329 104.821 130.632 106.124 130.632 107.732Z" fill="#1182C2"/>
<path d="M44.041 107.732C44.041 106.124 45.3441 104.821 46.9516 104.821H82.9704C84.5779 104.821 85.881 106.124 85.881 107.732C85.881 109.339 84.5779 110.642 82.9704 110.642H46.9516C45.3441 110.642 44.041 109.339 44.041 107.732Z" fill="#1182C2"/>
<path d="M69.8742 28.0532C69.8742 30.0625 68.2453 31.6914 66.2359 31.6914C64.2266 31.6914 62.5977 30.0625 62.5977 28.0532C62.5977 26.0438 64.2266 24.4149 66.2359 24.4149C68.2453 24.4149 69.8742 26.0438 69.8742 28.0532Z" fill="#1182C2"/>
<path d="M129.54 28.0532C129.54 30.0625 127.911 31.6914 125.902 31.6914C123.893 31.6914 122.264 30.0625 122.264 28.0532C122.264 26.0438 123.893 24.4149 125.902 24.4149C127.911 24.4149 129.54 26.0438 129.54 28.0532Z" fill="#1182C2"/>
<path d="M100.798 28.0532C100.798 30.0625 99.1691 31.6914 97.1597 31.6914C95.1504 31.6914 93.5215 30.0625 93.5215 28.0532C93.5215 26.0438 95.1504 24.4149 97.1597 24.4149C99.1691 24.4149 100.798 26.0438 100.798 28.0532Z" fill="#1182C2"/>
<path fill-rule="evenodd" clip-rule="evenodd" d="M67.0063 35.8314C66.58 35.4051 65.8889 35.4051 65.4627 35.8314L58.5165 42.7775C58.0903 43.2038 58.0903 43.8948 58.5165 44.3211C58.9428 44.7473 59.6339 44.7473 60.0601 44.3211L65.143 39.2382V64.5401C65.143 69.1616 68.8895 72.9081 73.511 72.9081H76.0578C79.4737 72.9081 82.2428 75.677 82.2428 79.0928V95.1792H84.4258V79.0928C84.4258 74.4712 80.6792 70.7251 76.0578 70.7251H73.511C70.0951 70.7251 67.3259 67.956 67.3259 64.5401V39.2382L72.4088 44.3211C72.8351 44.7473 73.5261 44.7473 73.9524 44.3211C74.3786 43.8948 74.3786 43.2038 73.9524 42.7775L67.0063 35.8314Z" fill="#1182C2"/>
<path fill-rule="evenodd" clip-rule="evenodd" d="M125.13 35.8314C125.557 35.4051 126.248 35.4051 126.674 35.8314L133.62 42.7775C134.046 43.2038 134.046 43.8948 133.62 44.3211C133.194 44.7473 132.503 44.7473 132.077 44.3211L126.994 39.2382V64.5401C126.994 69.1616 123.247 72.9081 118.626 72.9081H116.079C112.663 72.9081 109.894 75.677 109.894 79.0928V95.1792H107.711V79.0928C107.711 74.4712 111.457 70.7251 116.079 70.7251H118.626C122.042 70.7251 124.811 67.956 124.811 64.5401V39.2382L119.728 44.3211C119.302 44.7473 118.611 44.7473 118.184 44.3211C117.758 43.8948 117.758 43.2038 118.184 42.7775L125.13 35.8314Z" fill="#1182C2"/>
<path fill-rule="evenodd" clip-rule="evenodd" d="M96.0256 35.8314C96.4518 35.4051 97.1429 35.4051 97.5692 35.8314L104.515 42.7775C104.942 43.2038 104.942 43.8948 104.515 44.3211C104.089 44.7473 103.398 44.7473 102.972 44.3211L97.8889 39.2382V95.1792H95.7059V39.2382L90.623 44.3211C90.1968 44.7473 89.5057 44.7473 89.0795 44.3211C88.6532 43.8948 88.6532 43.2038 89.0795 42.7775L96.0256 35.8314Z" fill="#5DADDC"/>
<defs>
<filter id="filter0_dd_6_147" x="0.793145" y="0.000329256" width="179.924" height="177.539" filterUnits="userSpaceOnUse" color-interpolation-filters="sRGB">
<feFlood flood-opacity="0" result="BackgroundImageFix"/>
<feColorMatrix in="SourceAlpha" type="matrix" values="0 0 0 0 0 0 0 0 0 0 0 0 0 0 0 0 0 0 127 0" result="hardAlpha"/>
<feOffset dx="-7.0712" dy="7.0712"/>
<feGaussianBlur stdDeviation="3.5356"/>
<feComposite in2="hardAlpha" operator="out"/>
<feColorMatrix type="matrix" values="0 0 0 0 0.841668 0 0 0 0 0.907502 0 0 0 0 0.963932 0 0 0 1 0"/>
<feBlend mode="normal" in2="BackgroundImageFix" result="effect1_dropShadow_6_147"/>
<feColorMatrix in="SourceAlpha" type="matrix" values="0 0 0 0 0 0 0 0 0 0 0 0 0 0 0 0 0 0 127 0" result="hardAlpha"/>
<feOffset dy="2.02034"/>
<feGaussianBlur stdDeviation="3.03051"/>
<feComposite in2="hardAlpha" operator="out"/>
<feColorMatrix type="matrix" values="0 0 0 0 0.841668 0 0 0 0 0.907502 0 0 0 0 0.963932 0 0 0 1 0"/>
<feBlend mode="normal" in2="effect1_dropShadow_6_147" result="effect2_dropShadow_6_147"/>
<feBlend mode="normal" in="SourceGraphic" in2="effect2_dropShadow_6_147" result="shape"/>
</filter>
<filter id="filter1_d_6_147" x="17.0439" y="87.9261" width="147.945" height="56.6246" filterUnits="userSpaceOnUse" color-interpolation-filters="sRGB">
<feFlood flood-opacity="0" result="BackgroundImageFix"/>
<feColorMatrix in="SourceAlpha" type="matrix" values="0 0 0 0 0 0 0 0 0 0 0 0 0 0 0 0 0 0 127 0" result="hardAlpha"/>
<feOffset dx="-5.05086" dy="5.05086"/>
<feGaussianBlur stdDeviation="6.06103"/>
<feComposite in2="hardAlpha" operator="out"/>
<feColorMatrix type="matrix" values="0 0 0 0 0.887923 0 0 0 0 0.833847 0 0 0 0 0.709674 0 0 0 1 0"/>
<feBlend mode="normal" in2="BackgroundImageFix" result="effect1_dropShadow_6_147"/>
<feBlend mode="normal" in="SourceGraphic" in2="effect1_dropShadow_6_147" result="shape"/>
</filter>
<linearGradient id="paint0_linear_6_147" x1="250.2" y1="66.1105" x2="41.474" y2="62.2902" gradientUnits="userSpaceOnUse">
<stop stop-color="#FBC549"/>
<stop offset="1" stop-color="#FFDF96"/>
</linearGradient>
</defs>
</svg>
