<svg width="160" height="160" viewBox="0 0 160 160" fill="none" xmlns="http://www.w3.org/2000/svg">
<path d="M-0.00012207 14.553C-0.00012207 6.51562 6.5155 -7.62939e-06 14.5529 -7.62939e-06H145.167C153.204 -7.62939e-06 159.72 6.51562 159.72 14.553V144.803C159.72 152.84 153.204 159.356 145.167 159.356H14.5529C6.5155 159.356 -0.00012207 152.84 -0.00012207 144.803V14.553Z" fill="url(#paint0_linear_2_42)"/>
<g filter="url(#filter0_d_2_42)">
<path d="M25.8328 58.2123C25.8328 54.1936 29.0906 50.9358 33.1093 50.9358H125.885C129.904 50.9358 133.162 54.1936 133.162 58.2123V117.88C133.162 121.899 129.904 125.156 125.885 125.156H33.1093C29.0906 125.156 25.8328 121.899 25.8328 117.88V58.2123Z" fill="#FFFFF4"/>
</g>
<g filter="url(#filter1_d_2_42)">
<path fill-rule="evenodd" clip-rule="evenodd" d="M57.848 45.4785C57.848 40.2541 62.0832 36.019 67.3075 36.019H91.6839C96.9082 36.019 101.143 40.2541 101.143 45.4785V54.5741C101.143 59.7985 96.9082 64.0336 91.6839 64.0336H67.3075C62.0832 64.0336 57.848 59.7985 57.848 54.5741V45.4785ZM67.3075 40.3849C64.4944 40.3849 62.2139 42.6654 62.2139 45.4785V54.5741C62.2139 57.3872 64.4944 59.6677 67.3075 59.6677H91.6839C94.497 59.6677 96.7774 57.3872 96.7774 54.5741V45.4785C96.7774 42.6654 94.497 40.3849 91.6839 40.3849H67.3075Z" fill="#FFFFF4"/>
</g>
<path d="M70.9466 90.5929C70.9466 89.7892 71.5982 89.1376 72.4019 89.1376H86.5911C87.3949 89.1376 88.0464 89.7892 88.0464 90.5929V98.2333C88.0464 99.037 87.3949 99.6886 86.5911 99.6886H72.4019C71.5982 99.6886 70.9466 99.037 70.9466 98.2333V90.5929Z" fill="url(#paint1_linear_2_42)"/>
<g filter="url(#filter2_d_2_42)">
<path d="M25.8328 58.1729C25.8328 54.176 29.0906 50.9358 33.1093 50.9358H125.885C129.904 50.9358 133.162 54.176 133.162 58.1729L101.116 92.1306C99.741 93.5873 97.8266 94.413 95.8236 94.413H63.1707C61.1677 94.413 59.2533 93.5873 57.8786 92.1306L25.8328 58.1729Z" fill="#FFFFF4"/>
</g>
<defs>
<filter id="filter0_d_2_42" x="18.7616" y="50.9358" width="121.471" height="88.363" filterUnits="userSpaceOnUse" color-interpolation-filters="sRGB">
<feFlood flood-opacity="0" result="BackgroundImageFix"/>
<feColorMatrix in="SourceAlpha" type="matrix" values="0 0 0 0 0 0 0 0 0 0 0 0 0 0 0 0 0 0 127 0" result="hardAlpha"/>
<feOffset dy="7.0712"/>
<feGaussianBlur stdDeviation="3.5356"/>
<feComposite in2="hardAlpha" operator="out"/>
<feColorMatrix type="matrix" values="0 0 0 0 0.564706 0 0 0 0 0.509804 0 0 0 0 0.509804 0 0 0 0.25 0"/>
<feBlend mode="normal" in2="BackgroundImageFix" result="effect1_dropShadow_2_42"/>
<feBlend mode="normal" in="SourceGraphic" in2="effect1_dropShadow_2_42" result="shape"/>
</filter>
<filter id="filter1_d_2_42" x="50.7768" y="30.9681" width="57.4378" height="42.157" filterUnits="userSpaceOnUse" color-interpolation-filters="sRGB">
<feFlood flood-opacity="0" result="BackgroundImageFix"/>
<feColorMatrix in="SourceAlpha" type="matrix" values="0 0 0 0 0 0 0 0 0 0 0 0 0 0 0 0 0 0 127 0" result="hardAlpha"/>
<feOffset dy="2.02034"/>
<feGaussianBlur stdDeviation="3.5356"/>
<feComposite in2="hardAlpha" operator="out"/>
<feColorMatrix type="matrix" values="0 0 0 0 0.564706 0 0 0 0 0.509804 0 0 0 0 0.509804 0 0 0 0.25 0"/>
<feBlend mode="normal" in2="BackgroundImageFix" result="effect1_dropShadow_2_42"/>
<feBlend mode="normal" in="SourceGraphic" in2="effect1_dropShadow_2_42" result="shape"/>
</filter>
<filter id="filter2_d_2_42" x="18.7616" y="45.8849" width="121.471" height="57.6196" filterUnits="userSpaceOnUse" color-interpolation-filters="sRGB">
<feFlood flood-opacity="0" result="BackgroundImageFix"/>
<feColorMatrix in="SourceAlpha" type="matrix" values="0 0 0 0 0 0 0 0 0 0 0 0 0 0 0 0 0 0 127 0" result="hardAlpha"/>
<feOffset dy="2.02034"/>
<feGaussianBlur stdDeviation="3.5356"/>
<feComposite in2="hardAlpha" operator="out"/>
<feColorMatrix type="matrix" values="0 0 0 0 0.564706 0 0 0 0 0.509804 0 0 0 0 0.509804 0 0 0 0.25 0"/>
<feBlend mode="normal" in2="BackgroundImageFix" result="effect1_dropShadow_2_42"/>
<feBlend mode="normal" in="SourceGraphic" in2="effect1_dropShadow_2_42" result="shape"/>
</filter>
<linearGradient id="paint0_linear_2_42" x1="563.385" y1="-186.279" x2="62.7222" y2="-393.13" gradientUnits="userSpaceOnUse">
<stop stop-color="#FFB800"/>
<stop offset="1" stop-color="#FFF4D6"/>
</linearGradient>
<linearGradient id="paint1_linear_2_42" x1="95.9467" y1="72.7238" x2="63.7881" y2="72.5769" gradientUnits="userSpaceOnUse">
<stop stop-color="#0080C8"/>
<stop offset="1" stop-color="#0080C8" stop-opacity="0.36"/>
</linearGradient>
</defs>
</svg>
