<svg width="160" height="165" viewBox="0 0 160 165" fill="none" xmlns="http://www.w3.org/2000/svg">
<g filter="url(#filter0_d_2_34)">
<path d="M0.00012207 14.553C0.00012207 6.51562 6.51575 -7.62939e-06 14.5532 -7.62939e-06H145.167C153.204 -7.62939e-06 159.72 6.51562 159.72 14.553V144.803C159.72 152.84 153.204 159.356 145.167 159.356H14.5532C6.51575 159.356 0.00012207 152.84 0.00012207 144.803V14.553Z" fill="url(#paint0_linear_2_34)" fill-opacity="0.8" shape-rendering="crispEdges"/>
</g>
<g filter="url(#filter1_d_2_34)">
<path d="M81.4962 52.0274C69.8135 55.0454 67.3357 57.4444 64.3964 69.1272C61.3784 57.4444 58.9793 55.0454 47.2966 52.0274C58.9793 49.0094 61.4571 46.6103 64.3964 34.9275C67.4144 46.6103 69.8135 49.0881 81.4962 52.0274Z" fill="#FBDC95"/>
<path d="M119.699 59.3042C108.016 62.3222 105.538 64.7213 102.599 76.404C99.5808 64.7213 97.1817 62.3222 85.499 59.3042C97.1817 56.2862 99.6595 53.8871 102.599 42.2044C105.617 53.8871 108.016 56.3649 119.699 59.3042Z" fill="#FBDC95"/>
<path d="M107.329 34.9279C94.1545 38.3311 91.3604 41.0365 88.0459 54.2107C84.6426 41.0365 81.9372 38.3311 68.7631 34.9279C81.9372 31.5246 84.7313 28.8192 88.0459 15.6451C91.4491 28.8192 94.1545 31.6133 107.329 34.9279Z" fill="#FBDC95"/>
<path fill-rule="evenodd" clip-rule="evenodd" d="M34.7548 43.3487C34.0459 43.2966 33.149 43.2959 31.8733 43.2959H28.0138C27.411 43.2959 26.9224 42.8072 26.9224 42.2044C26.9224 41.6016 27.411 41.1129 28.0138 41.1129L31.9153 41.1129C33.1395 41.1129 34.1166 41.1129 34.915 41.1716C35.7364 41.2321 36.4428 41.3583 37.1159 41.6479C38.2114 42.1191 39.1633 42.8811 39.8585 43.8524C40.2843 44.4474 40.5581 45.11 40.791 45.8988C41.0201 46.6742 41.2282 47.6395 41.4889 48.8508L43.4532 57.975C43.6413 57.6461 43.9955 57.4245 44.4014 57.4245H114.776C116.702 57.4245 118.219 57.4245 119.418 57.531C120.636 57.6391 121.657 57.8651 122.531 58.4049C123.922 59.2641 124.941 60.612 125.385 62.1824C125.665 63.1697 125.6 64.2115 125.368 65.407C125.137 66.593 124.713 68.0581 124.174 69.9187L116.607 96.0289C116.585 96.1054 116.563 96.1809 116.541 96.2555C115.953 98.2879 115.57 99.6108 114.771 100.619C114.068 101.506 113.143 102.198 112.094 102.624C110.905 103.106 109.529 103.106 107.421 103.105C107.341 103.105 107.26 103.105 107.177 103.105H53.8542C53.5641 103.105 53.3004 102.992 53.1049 102.807L54.9336 111.302C55.195 112.516 55.3799 113.371 55.5764 114.039C55.769 114.693 55.9533 115.094 56.1788 115.409C56.6391 116.052 57.2737 116.56 58.009 116.876C58.3724 117.033 58.8132 117.13 59.5105 117.181C60.2211 117.233 61.1196 117.233 62.3947 117.233H104.489C111.121 117.233 116.506 122.586 116.506 129.199C116.506 135.813 111.121 141.165 104.489 141.165C97.8575 141.165 92.4728 135.813 92.4728 129.199C92.4728 125.155 94.4868 121.582 97.5683 119.416H62.3531C62.3177 119.416 62.2825 119.416 62.2475 119.416C65.3291 121.582 67.3431 125.155 67.3431 129.199C67.3431 135.813 61.9583 141.165 55.3265 141.165C48.6947 141.165 43.31 135.813 43.31 129.199C43.31 122.743 48.442 117.488 54.8562 117.242C54.6955 117.064 54.5443 116.876 54.4036 116.68C53.9811 116.089 53.711 115.432 53.4823 114.655C53.2602 113.901 53.0589 112.966 52.8084 111.802L39.3549 49.3103C39.0877 48.0693 38.8981 47.1961 38.6975 46.5172C38.5009 45.8514 38.313 45.4438 38.0833 45.1229C37.6221 44.4785 36.9872 43.9689 36.2533 43.6532C35.8893 43.4966 35.4499 43.3998 34.7548 43.3487ZM104.489 119.416C99.0536 119.416 94.6557 123.801 94.6557 129.199C94.6557 134.597 99.0536 138.982 104.489 138.982C109.925 138.982 114.323 134.597 114.323 129.199C114.323 123.801 109.925 119.416 104.489 119.416ZM52.8446 101.598C53.008 101.201 53.3985 100.922 53.8542 100.922H65.5566L64.6968 92.2305H50.8279L52.8446 101.598ZM50.358 90.0476H64.4809L63.6252 81.3974H48.4957L50.358 90.0476ZM48.0258 79.2145H63.4093L62.5688 70.7181H46.1966L48.0258 79.2145ZM45.7267 68.5351H62.3529L61.4698 59.6075H44.4014C44.1616 59.6075 43.9399 59.5301 43.7598 59.399L45.7267 68.5351ZM63.6634 59.6075L64.5465 68.5351H79.4243V59.6075H63.6634ZM81.6073 59.6075V68.5351H98.9556L99.9263 59.6075H81.6073ZM102.122 59.6075L101.151 68.5351H111.876L113.425 59.6075H102.122ZM115.64 59.6079L114.092 68.5351H122.301C122.734 67.034 123.047 65.9061 123.225 64.9904C123.432 63.9282 123.428 63.2819 123.285 62.777C122.989 61.7333 122.311 60.8351 121.384 60.2621C120.934 59.9844 120.309 59.8016 119.225 59.7054C118.31 59.6241 117.162 59.6103 115.64 59.6079ZM121.669 70.7181H113.713L112.24 79.2145H119.207L121.669 70.7181ZM118.574 81.3974H111.861L110.361 90.0476H116.067L118.574 81.3974ZM115.435 92.2305H109.982L108.475 100.917C109.978 100.903 110.68 100.842 111.273 100.601C111.974 100.317 112.592 99.8537 113.06 99.2634C113.557 98.6357 113.83 97.7688 114.51 95.4213L115.435 92.2305ZM106.259 100.922L107.766 92.2305H98.5748L97.6298 100.922H106.259ZM95.4339 100.922L96.379 92.2305H81.6073V100.922H95.4339ZM79.4243 100.922V92.2305H66.8904L67.7502 100.922H79.4243ZM66.6745 90.0476H79.4243V81.3974H65.8188L66.6745 90.0476ZM65.6029 79.2145H79.4243V70.7181H64.7624L65.6029 79.2145ZM81.6073 70.7181V79.2145H97.7943L98.7182 70.7181H81.6073ZM100.914 70.7181L99.9902 79.2145H110.024L111.498 70.7181H100.914ZM109.645 81.3974H99.7528L98.8122 90.0476H108.145L109.645 81.3974ZM96.6164 90.0476L97.557 81.3974H81.6073V90.0476H96.6164ZM55.3265 119.416C49.8908 119.416 45.4929 123.801 45.4929 129.199C45.4929 134.597 49.8908 138.982 55.3265 138.982C60.7622 138.982 65.1601 134.597 65.1601 129.199C65.1601 123.801 60.7622 119.416 55.3265 119.416Z" fill="#F7FAFD"/>
</g>
<defs>
<filter id="filter0_d_2_34" x="0.00012207" y="-7.62939e-06" width="159.72" height="164.407" filterUnits="userSpaceOnUse" color-interpolation-filters="sRGB">
<feFlood flood-opacity="0" result="BackgroundImageFix"/>
<feColorMatrix in="SourceAlpha" type="matrix" values="0 0 0 0 0 0 0 0 0 0 0 0 0 0 0 0 0 0 127 0" result="hardAlpha"/>
<feOffset dy="5.05086"/>
<feComposite in2="hardAlpha" operator="out"/>
<feColorMatrix type="matrix" values="0 0 0 0 0 0 0 0 0 0.486275 0 0 0 0 0.709804 0 0 0 0.7 0"/>
<feBlend mode="normal" in2="BackgroundImageFix" result="effect1_dropShadow_2_34"/>
<feBlend mode="normal" in="SourceGraphic" in2="effect1_dropShadow_2_34" result="shape"/>
</filter>
<filter id="filter1_d_2_34" x="24.902" y="15.6451" width="102.688" height="129.561" filterUnits="userSpaceOnUse" color-interpolation-filters="sRGB">
<feFlood flood-opacity="0" result="BackgroundImageFix"/>
<feColorMatrix in="SourceAlpha" type="matrix" values="0 0 0 0 0 0 0 0 0 0 0 0 0 0 0 0 0 0 127 0" result="hardAlpha"/>
<feOffset dy="2.02034"/>
<feGaussianBlur stdDeviation="1.01017"/>
<feComposite in2="hardAlpha" operator="out"/>
<feColorMatrix type="matrix" values="0 0 0 0 0 0 0 0 0 0 0 0 0 0 0 0 0 0 0.25 0"/>
<feBlend mode="normal" in2="BackgroundImageFix" result="effect1_dropShadow_2_34"/>
<feBlend mode="normal" in="SourceGraphic" in2="effect1_dropShadow_2_34" result="shape"/>
</filter>
<linearGradient id="paint0_linear_2_34" x1="233.511" y1="-247.906" x2="-66.867" y2="-248.754" gradientUnits="userSpaceOnUse">
<stop stop-color="#0080C8"/>
<stop offset="1" stop-color="#0080C8" stop-opacity="0.36"/>
</linearGradient>
</defs>
</svg>
